# xmcd
#
# Track frame offsets:
#	182
#	12542
#	30860
#	47275
#	60972
#	74300
#	87175
#	102310
#	117192
#	133665
#	148930
#	162387
#	176955
#	191912
#
# Disc length: 2734 seconds
#
# Revision: 3
# Processed by: cddbd v1.5.2PL0 Copyright (c) Steve Scherf et al.
# Submitted via: audiograbber 1.83.01
#
DISCID=c00aac0e
DTITLE=Various Artist - 80's Country
DYEAR=1989
DGENRE=Country
TTITLE0=Judds - Rock With The Rhythm Of The Rain
TTITLE1=K. T. Oslin - Do Ya'
TTITLE2=T. G. Sheperd - Strong Heart
TTITLE3=Ricky Skaggs - Crying My Heart Out Over You
TTITLE4=Larry Gatlin - Houston Means Im One Day Closer To You
TTITLE5=Okanes - Can't Stop My Heart From Loving You
TTITLE6=Alabama - Love In The First Degree
TTITLE7=Rosanne Cash - Seven Year Ache
TTITLE8=Earl Thomas Conley - Once In A Blue Moon
TTITLE9=Rick Van Shelton - Somebody Lied
TTITLE10=Exile - It'll Be Me
TTITLE11=Jon Conlee - Got My Hear Set On You
TTITLE12=Statler Brothers - My Only Love
TTITLE13=Mickey Gilley - True Love Ways
EXTD=Knight/Castell
EXTT0=
EXTT1=
EXTT2=
EXTT3=
EXTT4=
EXTT5=
EXTT6=
EXTT7=
EXTT8=
EXTT9=
EXTT10=
EXTT11=
EXTT12=
EXTT13=
PLAYORDER=
